<?xml version="1.0" encoding="UTF-8" standalone="no"?>
<!DOCTYPE svg PUBLIC "-//W3C//DTD SVG 1.1//EN"
 "http://www.w3.org/Graphics/SVG/1.1/DTD/svg11.dtd">
<!-- Generated by graphviz version 2.44.1 (20200629.0846)
 -->
<!-- Title: models_diagram Pages: 1 -->
<svg width="423pt" height="1258pt"
 viewBox="0.00 0.00 423.00 1258.00" xmlns="http://www.w3.org/2000/svg" xmlns:xlink="http://www.w3.org/1999/xlink">
<g id="graph0" class="graph" transform="scale(1 1) rotate(0) translate(4 1254)">
<title>models_diagram</title>
<polygon fill="white" stroke="transparent" points="-4,4 -4,-1254 419,-1254 419,4 -4,4"/>
<!-- table0 -->
<g id="node1" class="node">
<title>table0</title>
<polygon fill="#fce6c9" stroke="transparent" points="0,-1228 0,-1250 206,-1250 206,-1228 0,-1228"/>
<polygon fill="none" stroke="black" points="0,-1228 0,-1250 206,-1250 206,-1228 0,-1228"/>
<text text-anchor="start" x="39.5" y="-1236.2" font-family="Palatino−Italic" font-size="11.00">korea.itg_fact_sales_order</text>
<polygon fill="none" stroke="black" points="0,-1206 0,-1228 206,-1228 206,-1206 0,-1206"/>
<text text-anchor="start" x="5" y="-1214.2" font-family="Palatino−Italic" font-size="11.00">order_number: string</text>
<polygon fill="none" stroke="black" points="0,-1184 0,-1206 206,-1206 206,-1184 0,-1184"/>
<text text-anchor="start" x="5" y="-1192.2" font-family="Palatino−Italic" font-size="11.00">order_line_number: string</text>
<polygon fill="none" stroke="black" points="0,-1162 0,-1184 206,-1184 206,-1162 0,-1162"/>
<text text-anchor="start" x="5" y="-1170.2" font-family="Palatino−Italic" font-size="11.00">order_type_code: string</text>
<polygon fill="none" stroke="black" points="0,-1140 0,-1162 206,-1162 206,-1140 0,-1140"/>
<text text-anchor="start" x="5" y="-1148.2" font-family="Palatino−Italic" font-size="11.00">order_date: timestamp</text>
<polygon fill="none" stroke="black" points="0,-1118 0,-1140 206,-1140 206,-1118 0,-1118"/>
<text text-anchor="start" x="5" y="-1126.2" font-family="Palatino−Italic" font-size="11.00">doc_date: timestamp</text>
<polygon fill="none" stroke="black" points="0,-1096 0,-1118 206,-1118 206,-1096 0,-1096"/>
<text text-anchor="start" x="5" y="-1104.2" font-family="Palatino−Italic" font-size="11.00">market_id: string</text>
<polygon fill="none" stroke="black" points="0,-1074 0,-1096 206,-1096 206,-1074 0,-1074"/>
<text text-anchor="start" x="5" y="-1082.2" font-family="Palatino−Italic" font-size="11.00">sap_signature_code: string</text>
<polygon fill="none" stroke="black" points="0,-1052 0,-1074 206,-1074 206,-1052 0,-1052"/>
<text text-anchor="start" x="5" y="-1060.2" font-family="Palatino−Italic" font-size="11.00">ident_source_code: string</text>
<polygon fill="none" stroke="black" points="0,-1030 0,-1052 206,-1052 206,-1030 0,-1030"/>
<text text-anchor="start" x="5" y="-1038.2" font-family="Palatino−Italic" font-size="11.00">counter_id: string</text>
<polygon fill="none" stroke="black" points="0,-1008 0,-1030 206,-1030 206,-1008 0,-1008"/>
<text text-anchor="start" x="5" y="-1016.2" font-family="Palatino−Italic" font-size="11.00">mall_name: string</text>
<polygon fill="none" stroke="black" points="0,-986 0,-1008 206,-1008 206,-986 0,-986"/>
<text text-anchor="start" x="5" y="-994.2" font-family="Palatino−Italic" font-size="11.00">channel_name: string</text>
<polygon fill="none" stroke="black" points="0,-964 0,-986 206,-986 206,-964 0,-964"/>
<text text-anchor="start" x="5" y="-972.2" font-family="Palatino−Italic" font-size="11.00">channel_mode_code: string</text>
<polygon fill="none" stroke="black" points="0,-942 0,-964 206,-964 206,-942 0,-942"/>
<text text-anchor="start" x="5" y="-950.2" font-family="Palatino−Italic" font-size="11.00">ba_id: string</text>
<polygon fill="none" stroke="black" points="0,-920 0,-942 206,-942 206,-920 0,-920"/>
<text text-anchor="start" x="5" y="-928.2" font-family="Palatino−Italic" font-size="11.00">person_id: string</text>
<polygon fill="none" stroke="black" points="0,-898 0,-920 206,-920 206,-898 0,-898"/>
<text text-anchor="start" x="5" y="-906.2" font-family="Palatino−Italic" font-size="11.00">sap_product_code: string</text>
<polygon fill="none" stroke="black" points="0,-876 0,-898 206,-898 206,-876 0,-876"/>
<text text-anchor="start" x="5" y="-884.2" font-family="Palatino−Italic" font-size="11.00">sap_item_code: string</text>
<polygon fill="none" stroke="black" points="0,-854 0,-876 206,-876 206,-854 0,-854"/>
<text text-anchor="start" x="5" y="-862.2" font-family="Palatino−Italic" font-size="11.00">product_origin_code: string</text>
<polygon fill="none" stroke="black" points="0,-832 0,-854 206,-854 206,-832 0,-832"/>
<text text-anchor="start" x="5" y="-840.2" font-family="Palatino−Italic" font-size="11.00">bar_code: string</text>
<polygon fill="none" stroke="black" points="0,-810 0,-832 206,-832 206,-810 0,-810"/>
<text text-anchor="start" x="5" y="-818.2" font-family="Palatino−Italic" font-size="11.00">order_quantity: int</text>
<polygon fill="none" stroke="black" points="0,-788 0,-810 206,-810 206,-788 0,-788"/>
<text text-anchor="start" x="5" y="-796.2" font-family="Palatino−Italic" font-size="11.00">order_price_amount: decimal(22,7)</text>
<polygon fill="none" stroke="black" points="0,-766 0,-788 206,-788 206,-766 0,-766"/>
<text text-anchor="start" x="5" y="-774.2" font-family="Palatino−Italic" font-size="11.00">incl_amt_bf_disc_amount: decimal(22,7)</text>
<polygon fill="none" stroke="black" points="0,-744 0,-766 206,-766 206,-744 0,-744"/>
<text text-anchor="start" x="5" y="-752.2" font-family="Palatino−Italic" font-size="11.00">excl_amt_af_disc_amount: decimal(22,7)</text>
<polygon fill="none" stroke="black" points="0,-722 0,-744 206,-744 206,-722 0,-722"/>
<text text-anchor="start" x="5" y="-730.2" font-family="Palatino−Italic" font-size="11.00">excl_amt_bf_disc_amount: decimal(22,7)</text>
<polygon fill="none" stroke="black" points="0,-700 0,-722 206,-722 206,-700 0,-700"/>
<text text-anchor="start" x="5" y="-708.2" font-family="Palatino−Italic" font-size="11.00">insert_timestamp: timestamp</text>
<polygon fill="none" stroke="black" points="0,-678 0,-700 206,-700 206,-678 0,-678"/>
<text text-anchor="start" x="5" y="-686.2" font-family="Palatino−Italic" font-size="11.00">source_system_code: string</text>
<polygon fill="none" stroke="black" points="0,-656 0,-678 206,-678 206,-656 0,-656"/>
<text text-anchor="start" x="5" y="-664.2" font-family="Palatino−Italic" font-size="11.00">batch_date: string</text>
<polygon fill="none" stroke="black" points="0,-634 0,-656 206,-656 206,-634 0,-634"/>
<text text-anchor="start" x="5" y="-642.2" font-family="Palatino−Italic" font-size="11.00">doc_month_code: string</text>
</g>
<!-- table1 -->
<g id="node2" class="node">
<title>table1</title>
<polygon fill="#f0fff0" stroke="transparent" points="242.5,-528 242.5,-550 415.5,-550 415.5,-528 242.5,-528"/>
<polygon fill="none" stroke="black" points="242.5,-528 242.5,-550 415.5,-550 415.5,-528 242.5,-528"/>
<text text-anchor="start" x="283.5" y="-536.2" font-family="Palatino−Italic" font-size="11.00">korea.itg_dim_mall</text>
<polygon fill="none" stroke="black" points="242.5,-506 242.5,-528 415.5,-528 415.5,-506 242.5,-506"/>
<text text-anchor="start" x="247.5" y="-514.2" font-family="Palatino−Italic" font-size="11.00">channel_name: string</text>
<polygon fill="none" stroke="black" points="242.5,-484 242.5,-506 415.5,-506 415.5,-484 242.5,-484"/>
<text text-anchor="start" x="247.5" y="-492.2" font-family="Palatino−Italic" font-size="11.00">mall_name: string</text>
<polygon fill="none" stroke="black" points="242.5,-462 242.5,-484 415.5,-484 415.5,-462 242.5,-462"/>
<text text-anchor="start" x="247.5" y="-470.2" font-family="Palatino−Italic" font-size="11.00">sap_signature_short_name: string</text>
<polygon fill="none" stroke="black" points="242.5,-440 242.5,-462 415.5,-462 415.5,-440 242.5,-440"/>
<text text-anchor="start" x="247.5" y="-448.2" font-family="Palatino−Italic" font-size="11.00">insert_timestamp: timestamp</text>
<polygon fill="none" stroke="black" points="242.5,-418 242.5,-440 415.5,-440 415.5,-418 242.5,-418"/>
<text text-anchor="start" x="247.5" y="-426.2" font-family="Palatino−Italic" font-size="11.00">source_system_code: string</text>
<polygon fill="none" stroke="black" points="242.5,-396 242.5,-418 415.5,-418 415.5,-396 242.5,-396"/>
<text text-anchor="start" x="247.5" y="-404.2" font-family="Palatino−Italic" font-size="11.00">batch_date: string</text>
</g>
<!-- table0&#45;&gt;table1 -->
<g id="edge1" class="edge">
<title>table0:6&#45;&gt;table1:2</title>
<path fill="none" stroke="black" d="M206,-1085C270.66,-1085 183.63,-533.58 232.88,-477.57"/>
<polygon fill="black" stroke="black" points="234.63,-480.61 242,-473 231.49,-474.36 234.63,-480.61"/>
</g>
<!-- table0&#45;&gt;table1 -->
<g id="edge2" class="edge">
<title>table0:9&#45;&gt;table1:1</title>
<path fill="none" stroke="black" d="M206,-1019C260.94,-1019 192.62,-554.61 233.12,-500.19"/>
<polygon fill="black" stroke="black" points="235.13,-503.06 242,-495 231.6,-497.02 235.13,-503.06"/>
</g>
<!-- table0&#45;&gt;table1 -->
<g id="edge3" class="edge">
<title>table0:10&#45;&gt;table1:0</title>
<path fill="none" stroke="black" d="M206,-997C309.31,-997 146.86,-549.25 232.01,-518.64"/>
<polygon fill="black" stroke="black" points="232.7,-522.08 242,-517 231.56,-515.17 232.7,-522.08"/>
</g>
<!-- table2 -->
<g id="node3" class="node">
<title>table2</title>
<polygon fill="#f0fff0" stroke="transparent" points="254.5,-1151 254.5,-1173 402.5,-1173 402.5,-1151 254.5,-1151"/>
<polygon fill="none" stroke="black" points="254.5,-1151 254.5,-1173 402.5,-1173 402.5,-1151 254.5,-1151"/>
<text text-anchor="start" x="272.5" y="-1159.2" font-family="Palatino−Italic" font-size="11.00">korea.itg_dim_calendar</text>
<polygon fill="none" stroke="black" points="254.5,-1129 254.5,-1151 402.5,-1151 402.5,-1129 254.5,-1129"/>
<text text-anchor="start" x="259.5" y="-1137.2" font-family="Palatino−Italic" font-size="11.00">date_id: int</text>
<polygon fill="none" stroke="black" points="254.5,-1107 254.5,-1129 402.5,-1129 402.5,-1107 254.5,-1107"/>
<text text-anchor="start" x="259.5" y="-1115.2" font-family="Palatino−Italic" font-size="11.00">date: timestamp</text>
<polygon fill="none" stroke="black" points="254.5,-1085 254.5,-1107 402.5,-1107 402.5,-1085 254.5,-1085"/>
<text text-anchor="start" x="259.5" y="-1093.2" font-family="Palatino−Italic" font-size="11.00">day: int</text>
<polygon fill="none" stroke="black" points="254.5,-1063 254.5,-1085 402.5,-1085 402.5,-1063 254.5,-1063"/>
<text text-anchor="start" x="259.5" y="-1071.2" font-family="Palatino−Italic" font-size="11.00">day_desc: string</text>
<polygon fill="none" stroke="black" points="254.5,-1041 254.5,-1063 402.5,-1063 402.5,-1041 254.5,-1041"/>
<text text-anchor="start" x="259.5" y="-1049.2" font-family="Palatino−Italic" font-size="11.00">week_num: int</text>
<polygon fill="none" stroke="black" points="254.5,-1019 254.5,-1041 402.5,-1041 402.5,-1019 254.5,-1019"/>
<text text-anchor="start" x="259.5" y="-1027.2" font-family="Palatino−Italic" font-size="11.00">day_of_week: int</text>
<polygon fill="none" stroke="black" points="254.5,-997 254.5,-1019 402.5,-1019 402.5,-997 254.5,-997"/>
<text text-anchor="start" x="259.5" y="-1005.2" font-family="Palatino−Italic" font-size="11.00">day_of_week_desc: string</text>
<polygon fill="none" stroke="black" points="254.5,-975 254.5,-997 402.5,-997 402.5,-975 254.5,-975"/>
<text text-anchor="start" x="259.5" y="-983.2" font-family="Palatino−Italic" font-size="11.00">week_start_date: timestamp</text>
<polygon fill="none" stroke="black" points="254.5,-953 254.5,-975 402.5,-975 402.5,-953 254.5,-953"/>
<text text-anchor="start" x="259.5" y="-961.2" font-family="Palatino−Italic" font-size="11.00">week_end_date: timestamp</text>
<polygon fill="none" stroke="black" points="254.5,-931 254.5,-953 402.5,-953 402.5,-931 254.5,-931"/>
<text text-anchor="start" x="259.5" y="-939.2" font-family="Palatino−Italic" font-size="11.00">month: int</text>
<polygon fill="none" stroke="black" points="254.5,-909 254.5,-931 402.5,-931 402.5,-909 254.5,-909"/>
<text text-anchor="start" x="259.5" y="-917.2" font-family="Palatino−Italic" font-size="11.00">month_short_desc: string</text>
<polygon fill="none" stroke="black" points="254.5,-887 254.5,-909 402.5,-909 402.5,-887 254.5,-887"/>
<text text-anchor="start" x="259.5" y="-895.2" font-family="Palatino−Italic" font-size="11.00">r3m_start_month: string</text>
<polygon fill="none" stroke="black" points="254.5,-865 254.5,-887 402.5,-887 402.5,-865 254.5,-865"/>
<text text-anchor="start" x="259.5" y="-873.2" font-family="Palatino−Italic" font-size="11.00">last_month: string</text>
<polygon fill="none" stroke="black" points="254.5,-843 254.5,-865 402.5,-865 402.5,-843 254.5,-843"/>
<text text-anchor="start" x="259.5" y="-851.2" font-family="Palatino−Italic" font-size="11.00">month_year: string</text>
<polygon fill="none" stroke="black" points="254.5,-821 254.5,-843 402.5,-843 402.5,-821 254.5,-821"/>
<text text-anchor="start" x="259.5" y="-829.2" font-family="Palatino−Italic" font-size="11.00">quarter: string</text>
<polygon fill="none" stroke="black" points="254.5,-799 254.5,-821 402.5,-821 402.5,-799 254.5,-799"/>
<text text-anchor="start" x="259.5" y="-807.2" font-family="Palatino−Italic" font-size="11.00">quarter_year: string</text>
<polygon fill="none" stroke="black" points="254.5,-777 254.5,-799 402.5,-799 402.5,-777 254.5,-777"/>
<text text-anchor="start" x="259.5" y="-785.2" font-family="Palatino−Italic" font-size="11.00">semester: string</text>
<polygon fill="none" stroke="black" points="254.5,-755 254.5,-777 402.5,-777 402.5,-755 254.5,-755"/>
<text text-anchor="start" x="259.5" y="-763.2" font-family="Palatino−Italic" font-size="11.00">semester_year: string</text>
<polygon fill="none" stroke="black" points="254.5,-733 254.5,-755 402.5,-755 402.5,-733 254.5,-733"/>
<text text-anchor="start" x="259.5" y="-741.2" font-family="Palatino−Italic" font-size="11.00">year: int</text>
<polygon fill="none" stroke="black" points="254.5,-711 254.5,-733 402.5,-733 402.5,-711 254.5,-711"/>
<text text-anchor="start" x="259.5" y="-719.2" font-family="Palatino−Italic" font-size="11.00">last_year_today: timestamp</text>
<polygon fill="none" stroke="black" points="254.5,-689 254.5,-711 402.5,-711 402.5,-689 254.5,-689"/>
<text text-anchor="start" x="259.5" y="-697.2" font-family="Palatino−Italic" font-size="11.00">load_ts: timestamp</text>
<polygon fill="none" stroke="black" points="254.5,-667 254.5,-689 402.5,-689 402.5,-667 254.5,-667"/>
<text text-anchor="start" x="259.5" y="-675.2" font-family="Palatino−Italic" font-size="11.00">workday_flag: string</text>
<polygon fill="none" stroke="black" points="254.5,-645 254.5,-667 402.5,-667 402.5,-645 254.5,-645"/>
<text text-anchor="start" x="259.5" y="-653.2" font-family="Palatino−Italic" font-size="11.00">date_desc: string</text>
<polygon fill="none" stroke="black" points="254.5,-623 254.5,-645 402.5,-645 402.5,-623 254.5,-623"/>
<text text-anchor="start" x="259.5" y="-631.2" font-family="Palatino−Italic" font-size="11.00">insert_timestamp: timestamp</text>
<polygon fill="none" stroke="black" points="254.5,-601 254.5,-623 402.5,-623 402.5,-601 254.5,-601"/>
<text text-anchor="start" x="259.5" y="-609.2" font-family="Palatino−Italic" font-size="11.00">source_system_code: string</text>
<polygon fill="none" stroke="black" points="254.5,-579 254.5,-601 402.5,-601 402.5,-579 254.5,-579"/>
<text text-anchor="start" x="259.5" y="-587.2" font-family="Palatino−Italic" font-size="11.00">batch_date: string</text>
</g>
<!-- table0&#45;&gt;table2 -->
<g id="edge4" class="edge">
<title>table0:3&#45;&gt;table2:1</title>
<path fill="none" stroke="black" d="M206,-1151C227.69,-1151 228.29,-1127.51 243.39,-1120.17"/>
<polygon fill="black" stroke="black" points="244.46,-1123.52 253.5,-1118 242.99,-1116.67 244.46,-1123.52"/>
</g>
<!-- table0&#45;&gt;table2 -->
<g id="edge5" class="edge">
<title>table0:4&#45;&gt;table2:1</title>
<path fill="none" stroke="black" d="M206,-1129C223.78,-1129 229.77,-1121.6 243.31,-1118.94"/>
<polygon fill="black" stroke="black" points="243.86,-1122.4 253.5,-1118 243.22,-1115.43 243.86,-1122.4"/>
</g>
<!-- table3 -->
<g id="node4" class="node">
<title>table3</title>
<polygon fill="#fce6c9" stroke="transparent" points="0,-594 0,-616 206,-616 206,-594 0,-594"/>
<polygon fill="none" stroke="black" points="0,-594 0,-616 206,-616 206,-594 0,-594"/>
<text text-anchor="start" x="33.5" y="-602.2" font-family="Palatino−Italic" font-size="11.00">korea.itg_fact_sales_order_2</text>
<polygon fill="none" stroke="black" points="0,-572 0,-594 206,-594 206,-572 0,-572"/>
<text text-anchor="start" x="5" y="-580.2" font-family="Palatino−Italic" font-size="11.00">order_number: string</text>
<polygon fill="none" stroke="black" points="0,-550 0,-572 206,-572 206,-550 0,-550"/>
<text text-anchor="start" x="5" y="-558.2" font-family="Palatino−Italic" font-size="11.00">order_line_number: string</text>
<polygon fill="none" stroke="black" points="0,-528 0,-550 206,-550 206,-528 0,-528"/>
<text text-anchor="start" x="5" y="-536.2" font-family="Palatino−Italic" font-size="11.00">order_type_code: string</text>
<polygon fill="none" stroke="black" points="0,-506 0,-528 206,-528 206,-506 0,-506"/>
<text text-anchor="start" x="5" y="-514.2" font-family="Palatino−Italic" font-size="11.00">order_date: timestamp</text>
<polygon fill="none" stroke="black" points="0,-484 0,-506 206,-506 206,-484 0,-484"/>
<text text-anchor="start" x="5" y="-492.2" font-family="Palatino−Italic" font-size="11.00">doc_date: timestamp</text>
<polygon fill="none" stroke="black" points="0,-462 0,-484 206,-484 206,-462 0,-462"/>
<text text-anchor="start" x="5" y="-470.2" font-family="Palatino−Italic" font-size="11.00">market_id: string</text>
<polygon fill="none" stroke="black" points="0,-440 0,-462 206,-462 206,-440 0,-440"/>
<text text-anchor="start" x="5" y="-448.2" font-family="Palatino−Italic" font-size="11.00">sap_signature_code: string</text>
<polygon fill="none" stroke="black" points="0,-418 0,-440 206,-440 206,-418 0,-418"/>
<text text-anchor="start" x="5" y="-426.2" font-family="Palatino−Italic" font-size="11.00">ident_source_code: string</text>
<polygon fill="none" stroke="black" points="0,-396 0,-418 206,-418 206,-396 0,-396"/>
<text text-anchor="start" x="5" y="-404.2" font-family="Palatino−Italic" font-size="11.00">counter_id: string</text>
<polygon fill="none" stroke="black" points="0,-374 0,-396 206,-396 206,-374 0,-374"/>
<text text-anchor="start" x="5" y="-382.2" font-family="Palatino−Italic" font-size="11.00">mall_name: string</text>
<polygon fill="none" stroke="black" points="0,-352 0,-374 206,-374 206,-352 0,-352"/>
<text text-anchor="start" x="5" y="-360.2" font-family="Palatino−Italic" font-size="11.00">channel_name: string</text>
<polygon fill="none" stroke="black" points="0,-330 0,-352 206,-352 206,-330 0,-330"/>
<text text-anchor="start" x="5" y="-338.2" font-family="Palatino−Italic" font-size="11.00">channel_mode_code: string</text>
<polygon fill="none" stroke="black" points="0,-308 0,-330 206,-330 206,-308 0,-308"/>
<text text-anchor="start" x="5" y="-316.2" font-family="Palatino−Italic" font-size="11.00">ba_id: string</text>
<polygon fill="none" stroke="black" points="0,-286 0,-308 206,-308 206,-286 0,-286"/>
<text text-anchor="start" x="5" y="-294.2" font-family="Palatino−Italic" font-size="11.00">person_id: string</text>
<polygon fill="none" stroke="black" points="0,-264 0,-286 206,-286 206,-264 0,-264"/>
<text text-anchor="start" x="5" y="-272.2" font-family="Palatino−Italic" font-size="11.00">sap_product_code: string</text>
<polygon fill="none" stroke="black" points="0,-242 0,-264 206,-264 206,-242 0,-242"/>
<text text-anchor="start" x="5" y="-250.2" font-family="Palatino−Italic" font-size="11.00">sap_item_code: string</text>
<polygon fill="none" stroke="black" points="0,-220 0,-242 206,-242 206,-220 0,-220"/>
<text text-anchor="start" x="5" y="-228.2" font-family="Palatino−Italic" font-size="11.00">product_origin_code: string</text>
<polygon fill="none" stroke="black" points="0,-198 0,-220 206,-220 206,-198 0,-198"/>
<text text-anchor="start" x="5" y="-206.2" font-family="Palatino−Italic" font-size="11.00">bar_code: string</text>
<polygon fill="none" stroke="black" points="0,-176 0,-198 206,-198 206,-176 0,-176"/>
<text text-anchor="start" x="5" y="-184.2" font-family="Palatino−Italic" font-size="11.00">order_quantity: int</text>
<polygon fill="none" stroke="black" points="0,-154 0,-176 206,-176 206,-154 0,-154"/>
<text text-anchor="start" x="5" y="-162.2" font-family="Palatino−Italic" font-size="11.00">order_price_amount: decimal(22,7)</text>
<polygon fill="none" stroke="black" points="0,-132 0,-154 206,-154 206,-132 0,-132"/>
<text text-anchor="start" x="5" y="-140.2" font-family="Palatino−Italic" font-size="11.00">incl_amt_bf_disc_amount: decimal(22,7)</text>
<polygon fill="none" stroke="black" points="0,-110 0,-132 206,-132 206,-110 0,-110"/>
<text text-anchor="start" x="5" y="-118.2" font-family="Palatino−Italic" font-size="11.00">excl_amt_af_disc_amount: decimal(22,7)</text>
<polygon fill="none" stroke="black" points="0,-88 0,-110 206,-110 206,-88 0,-88"/>
<text text-anchor="start" x="5" y="-96.2" font-family="Palatino−Italic" font-size="11.00">excl_amt_bf_disc_amount: decimal(22,7)</text>
<polygon fill="none" stroke="black" points="0,-66 0,-88 206,-88 206,-66 0,-66"/>
<text text-anchor="start" x="5" y="-74.2" font-family="Palatino−Italic" font-size="11.00">insert_timestamp: timestamp</text>
<polygon fill="none" stroke="black" points="0,-44 0,-66 206,-66 206,-44 0,-44"/>
<text text-anchor="start" x="5" y="-52.2" font-family="Palatino−Italic" font-size="11.00">source_system_code: string</text>
<polygon fill="none" stroke="black" points="0,-22 0,-44 206,-44 206,-22 0,-22"/>
<text text-anchor="start" x="5" y="-30.2" font-family="Palatino−Italic" font-size="11.00">batch_date: string</text>
<polygon fill="none" stroke="black" points="0,0 0,-22 206,-22 206,0 0,0"/>
<text text-anchor="start" x="5" y="-8.2" font-family="Palatino−Italic" font-size="11.00">doc_month_code: string</text>
</g>
<!-- table3&#45;&gt;table1 -->
<g id="edge6" class="edge">
<title>table3:6&#45;&gt;table1:2</title>
<path fill="none" stroke="black" d="M206,-451C220.65,-451 222.94,-464.43 232.18,-470.3"/>
<polygon fill="black" stroke="black" points="231.43,-473.73 242,-473 233.28,-466.98 231.43,-473.73"/>
</g>
<!-- table3&#45;&gt;table1 -->
<g id="edge7" class="edge">
<title>table3:9&#45;&gt;table1:1</title>
<path fill="none" stroke="black" d="M206,-385C253.42,-385 200.29,-478.48 232,-493.09"/>
<polygon fill="black" stroke="black" points="231.52,-496.56 242,-495 232.83,-489.69 231.52,-496.56"/>
</g>
<!-- table3&#45;&gt;table1 -->
<g id="edge8" class="edge">
<title>table3:10&#45;&gt;table1:0</title>
<path fill="none" stroke="black" d="M206,-363C272.45,-363 182.63,-500.62 231.98,-515.67"/>
<polygon fill="black" stroke="black" points="231.63,-519.15 242,-517 232.55,-512.21 231.63,-519.15"/>
</g>
<!-- table3&#45;&gt;table2 -->
<g id="edge9" class="edge">
<title>table3:3&#45;&gt;table2:1</title>
<path fill="none" stroke="black" d="M206,-517C269.58,-517 194.9,-1058.51 244.44,-1113.51"/>
<polygon fill="black" stroke="black" points="242.99,-1116.69 253.5,-1118 246.1,-1110.42 242.99,-1116.69"/>
</g>
<!-- table3&#45;&gt;table2 -->
<g id="edge10" class="edge">
<title>table3:4&#45;&gt;table2:1</title>
<path fill="none" stroke="black" d="M206,-495C272.03,-495 192.61,-1058.65 244.44,-1113.69"/>
<polygon fill="black" stroke="black" points="242.97,-1116.86 253.5,-1118 245.97,-1110.54 242.97,-1116.86"/>
</g>
</g>
</svg>
