<?xml version="1.0" encoding="UTF-8" standalone="no"?>
<!DOCTYPE svg PUBLIC "-//W3C//DTD SVG 1.1//EN"
 "http://www.w3.org/Graphics/SVG/1.1/DTD/svg11.dtd">
<!-- Generated by graphviz version 2.44.1 (20200629.0846)
 -->
<!-- Title: models_diagram Pages: 1 -->
<svg width="429pt" height="1386pt"
 viewBox="0.00 0.00 429.00 1386.00" xmlns="http://www.w3.org/2000/svg" xmlns:xlink="http://www.w3.org/1999/xlink">
<g id="graph0" class="graph" transform="scale(1 1) rotate(0) translate(4 1382)">
<title>models_diagram</title>
<polygon fill="white" stroke="transparent" points="-4,4 -4,-1382 425,-1382 425,4 -4,4"/>
<!-- table0 -->
<g id="node1" class="node">
<title>table0</title>
<polygon fill="#fce6c9" stroke="transparent" points="3,-1356 3,-1378 209,-1378 209,-1356 3,-1356"/>
<polygon fill="none" stroke="black" points="3,-1356 3,-1378 209,-1378 209,-1356 3,-1356"/>
<text text-anchor="start" x="42.5" y="-1364.2" font-family="Palatino−Italic" font-size="11.00">korea.itg_fact_sales_order</text>
<polygon fill="none" stroke="black" points="3,-1334 3,-1356 209,-1356 209,-1334 3,-1334"/>
<text text-anchor="start" x="8" y="-1342.2" font-family="Palatino−Italic" font-size="11.00">order_number: string</text>
<polygon fill="none" stroke="black" points="3,-1312 3,-1334 209,-1334 209,-1312 3,-1312"/>
<text text-anchor="start" x="8" y="-1320.2" font-family="Palatino−Italic" font-size="11.00">order_line_number: string</text>
<polygon fill="none" stroke="black" points="3,-1290 3,-1312 209,-1312 209,-1290 3,-1290"/>
<text text-anchor="start" x="8" y="-1298.2" font-family="Palatino−Italic" font-size="11.00">order_type_code: string</text>
<polygon fill="none" stroke="black" points="3,-1268 3,-1290 209,-1290 209,-1268 3,-1268"/>
<text text-anchor="start" x="8" y="-1276.2" font-family="Palatino−Italic" font-size="11.00">order_date: timestamp</text>
<polygon fill="none" stroke="black" points="3,-1246 3,-1268 209,-1268 209,-1246 3,-1246"/>
<text text-anchor="start" x="8" y="-1254.2" font-family="Palatino−Italic" font-size="11.00">doc_date: timestamp</text>
<polygon fill="none" stroke="black" points="3,-1224 3,-1246 209,-1246 209,-1224 3,-1224"/>
<text text-anchor="start" x="8" y="-1232.2" font-family="Palatino−Italic" font-size="11.00">market_id: string</text>
<polygon fill="none" stroke="black" points="3,-1202 3,-1224 209,-1224 209,-1202 3,-1202"/>
<text text-anchor="start" x="8" y="-1210.2" font-family="Palatino−Italic" font-size="11.00">sap_signature_code: string</text>
<polygon fill="none" stroke="black" points="3,-1180 3,-1202 209,-1202 209,-1180 3,-1180"/>
<text text-anchor="start" x="8" y="-1188.2" font-family="Palatino−Italic" font-size="11.00">ident_source_code: string</text>
<polygon fill="none" stroke="black" points="3,-1158 3,-1180 209,-1180 209,-1158 3,-1158"/>
<text text-anchor="start" x="8" y="-1166.2" font-family="Palatino−Italic" font-size="11.00">counter_id: string</text>
<polygon fill="none" stroke="black" points="3,-1136 3,-1158 209,-1158 209,-1136 3,-1136"/>
<text text-anchor="start" x="8" y="-1144.2" font-family="Palatino−Italic" font-size="11.00">mall_name: string</text>
<polygon fill="none" stroke="black" points="3,-1114 3,-1136 209,-1136 209,-1114 3,-1114"/>
<text text-anchor="start" x="8" y="-1122.2" font-family="Palatino−Italic" font-size="11.00">channel_name: string</text>
<polygon fill="none" stroke="black" points="3,-1092 3,-1114 209,-1114 209,-1092 3,-1092"/>
<text text-anchor="start" x="8" y="-1100.2" font-family="Palatino−Italic" font-size="11.00">channel_mode_code: string</text>
<polygon fill="none" stroke="black" points="3,-1070 3,-1092 209,-1092 209,-1070 3,-1070"/>
<text text-anchor="start" x="8" y="-1078.2" font-family="Palatino−Italic" font-size="11.00">ba_id: string</text>
<polygon fill="none" stroke="black" points="3,-1048 3,-1070 209,-1070 209,-1048 3,-1048"/>
<text text-anchor="start" x="8" y="-1056.2" font-family="Palatino−Italic" font-size="11.00">person_id: string</text>
<polygon fill="none" stroke="black" points="3,-1026 3,-1048 209,-1048 209,-1026 3,-1026"/>
<text text-anchor="start" x="8" y="-1034.2" font-family="Palatino−Italic" font-size="11.00">sap_product_code: string</text>
<polygon fill="none" stroke="black" points="3,-1004 3,-1026 209,-1026 209,-1004 3,-1004"/>
<text text-anchor="start" x="8" y="-1012.2" font-family="Palatino−Italic" font-size="11.00">sap_item_code: string</text>
<polygon fill="none" stroke="black" points="3,-982 3,-1004 209,-1004 209,-982 3,-982"/>
<text text-anchor="start" x="8" y="-990.2" font-family="Palatino−Italic" font-size="11.00">product_origin_code: string</text>
<polygon fill="none" stroke="black" points="3,-960 3,-982 209,-982 209,-960 3,-960"/>
<text text-anchor="start" x="8" y="-968.2" font-family="Palatino−Italic" font-size="11.00">bar_code: string</text>
<polygon fill="none" stroke="black" points="3,-938 3,-960 209,-960 209,-938 3,-938"/>
<text text-anchor="start" x="8" y="-946.2" font-family="Palatino−Italic" font-size="11.00">order_quantity: int</text>
<polygon fill="none" stroke="black" points="3,-916 3,-938 209,-938 209,-916 3,-916"/>
<text text-anchor="start" x="8" y="-924.2" font-family="Palatino−Italic" font-size="11.00">order_price_amount: decimal(22,7)</text>
<polygon fill="none" stroke="black" points="3,-894 3,-916 209,-916 209,-894 3,-894"/>
<text text-anchor="start" x="8" y="-902.2" font-family="Palatino−Italic" font-size="11.00">incl_amt_bf_disc_amount: decimal(22,7)</text>
<polygon fill="none" stroke="black" points="3,-872 3,-894 209,-894 209,-872 3,-872"/>
<text text-anchor="start" x="8" y="-880.2" font-family="Palatino−Italic" font-size="11.00">excl_amt_af_disc_amount: decimal(22,7)</text>
<polygon fill="none" stroke="black" points="3,-850 3,-872 209,-872 209,-850 3,-850"/>
<text text-anchor="start" x="8" y="-858.2" font-family="Palatino−Italic" font-size="11.00">excl_amt_bf_disc_amount: decimal(22,7)</text>
<polygon fill="none" stroke="black" points="3,-828 3,-850 209,-850 209,-828 3,-828"/>
<text text-anchor="start" x="8" y="-836.2" font-family="Palatino−Italic" font-size="11.00">insert_timestamp: timestamp</text>
<polygon fill="none" stroke="black" points="3,-806 3,-828 209,-828 209,-806 3,-806"/>
<text text-anchor="start" x="8" y="-814.2" font-family="Palatino−Italic" font-size="11.00">source_system_code: string</text>
<polygon fill="none" stroke="black" points="3,-784 3,-806 209,-806 209,-784 3,-784"/>
<text text-anchor="start" x="8" y="-792.2" font-family="Palatino−Italic" font-size="11.00">batch_date: string</text>
<polygon fill="none" stroke="black" points="3,-762 3,-784 209,-784 209,-762 3,-762"/>
<text text-anchor="start" x="8" y="-770.2" font-family="Palatino−Italic" font-size="11.00">doc_month_code: string</text>
</g>
<!-- table2 -->
<g id="node3" class="node">
<title>table2</title>
<polygon fill="#f0fff0" stroke="transparent" points="248.5,-678 248.5,-700 421.5,-700 421.5,-678 248.5,-678"/>
<polygon fill="none" stroke="black" points="248.5,-678 248.5,-700 421.5,-700 421.5,-678 248.5,-678"/>
<text text-anchor="start" x="289.5" y="-686.2" font-family="Palatino−Italic" font-size="11.00">korea.itg_dim_mall</text>
<polygon fill="none" stroke="black" points="248.5,-656 248.5,-678 421.5,-678 421.5,-656 248.5,-656"/>
<text text-anchor="start" x="253.5" y="-664.2" font-family="Palatino−Italic" font-size="11.00">channel_name: string</text>
<polygon fill="none" stroke="black" points="248.5,-634 248.5,-656 421.5,-656 421.5,-634 248.5,-634"/>
<text text-anchor="start" x="253.5" y="-642.2" font-family="Palatino−Italic" font-size="11.00">mall_name: string</text>
<polygon fill="none" stroke="black" points="248.5,-612 248.5,-634 421.5,-634 421.5,-612 248.5,-612"/>
<text text-anchor="start" x="253.5" y="-620.2" font-family="Palatino−Italic" font-size="11.00">sap_signature_short_name: string</text>
<polygon fill="none" stroke="black" points="248.5,-590 248.5,-612 421.5,-612 421.5,-590 248.5,-590"/>
<text text-anchor="start" x="253.5" y="-598.2" font-family="Palatino−Italic" font-size="11.00">insert_timestamp: timestamp</text>
<polygon fill="none" stroke="black" points="248.5,-568 248.5,-590 421.5,-590 421.5,-568 248.5,-568"/>
<text text-anchor="start" x="253.5" y="-576.2" font-family="Palatino−Italic" font-size="11.00">source_system_code: string</text>
<polygon fill="none" stroke="black" points="248.5,-546 248.5,-568 421.5,-568 421.5,-546 248.5,-546"/>
<text text-anchor="start" x="253.5" y="-554.2" font-family="Palatino−Italic" font-size="11.00">batch_date: string</text>
</g>
<!-- table0&#45;&gt;table2 -->
<g id="edge1" class="edge">
<title>table0:9&#45;&gt;table2:1</title>
<path fill="none" stroke="black" d="M210,-1147C262.55,-1147 200.53,-703.95 239.21,-650.3"/>
<polygon fill="black" stroke="black" points="241.24,-653.16 248,-645 237.63,-647.16 241.24,-653.16"/>
</g>
<!-- table0&#45;&gt;table2 -->
<g id="edge2" class="edge">
<title>table0:10&#45;&gt;table2:0</title>
<path fill="none" stroke="black" d="M210,-1125C308.34,-1125 157.84,-700.36 237.71,-668.85"/>
<polygon fill="black" stroke="black" points="238.78,-672.21 248,-667 237.54,-665.32 238.78,-672.21"/>
</g>
<!-- table1 -->
<g id="node2" class="node">
<title>table1</title>
<polygon fill="#fce6c9" stroke="transparent" points="2,-722 2,-744 211,-744 211,-722 2,-722"/>
<polygon fill="none" stroke="black" points="2,-722 2,-744 211,-744 211,-722 2,-722"/>
<text text-anchor="start" x="33.5" y="-730.2" font-family="Palatino−Italic" font-size="11.00">korea.rpt_sellout_daily_agg_l1</text>
<polygon fill="none" stroke="black" points="2,-700 2,-722 211,-722 211,-700 2,-700"/>
<text text-anchor="start" x="7" y="-708.2" font-family="Palatino−Italic" font-size="11.00">doc_date: timestamp</text>
<polygon fill="none" stroke="black" points="2,-678 2,-700 211,-700 211,-678 2,-678"/>
<text text-anchor="start" x="7" y="-686.2" font-family="Palatino−Italic" font-size="11.00">channel_mode_code: string</text>
<polygon fill="none" stroke="black" points="2,-656 2,-678 211,-678 211,-656 2,-656"/>
<text text-anchor="start" x="7" y="-664.2" font-family="Palatino−Italic" font-size="11.00">channel_name: string</text>
<polygon fill="none" stroke="black" points="2,-634 2,-656 211,-656 211,-634 2,-634"/>
<text text-anchor="start" x="7" y="-642.2" font-family="Palatino−Italic" font-size="11.00">mall_name: string</text>
<polygon fill="none" stroke="black" points="2,-612 2,-634 211,-634 211,-612 2,-612"/>
<text text-anchor="start" x="7" y="-620.2" font-family="Palatino−Italic" font-size="11.00">sap_signature_short_name: string</text>
<polygon fill="none" stroke="black" points="2,-590 2,-612 211,-612 211,-590 2,-590"/>
<text text-anchor="start" x="7" y="-598.2" font-family="Palatino−Italic" font-size="11.00">month_short_desc: string</text>
<polygon fill="none" stroke="black" points="2,-568 2,-590 211,-590 211,-568 2,-568"/>
<text text-anchor="start" x="7" y="-576.2" font-family="Palatino−Italic" font-size="11.00">prev_year_sellout_amount: decimal(22,7)</text>
<polygon fill="none" stroke="black" points="2,-546 2,-568 211,-568 211,-546 2,-546"/>
<text text-anchor="start" x="7" y="-554.2" font-family="Palatino−Italic" font-size="11.00">actual_sellout_amount: decimal(22,7)</text>
<polygon fill="none" stroke="black" points="2,-524 2,-546 211,-546 211,-524 2,-524"/>
<text text-anchor="start" x="7" y="-532.2" font-family="Palatino−Italic" font-size="11.00">insert_timestamp: timestamp</text>
<polygon fill="none" stroke="black" points="2,-502 2,-524 211,-524 211,-502 2,-502"/>
<text text-anchor="start" x="7" y="-510.2" font-family="Palatino−Italic" font-size="11.00">source_system_code: string</text>
<polygon fill="none" stroke="black" points="2,-480 2,-502 211,-502 211,-480 2,-480"/>
<text text-anchor="start" x="7" y="-488.2" font-family="Palatino−Italic" font-size="11.00">batch_date: string</text>
<polygon fill="none" stroke="black" points="2,-458 2,-480 211,-480 211,-458 2,-458"/>
<text text-anchor="start" x="7" y="-466.2" font-family="Palatino−Italic" font-size="11.00">doc_month_code: string</text>
</g>
<!-- table1&#45;&gt;table2 -->
<g id="edge3" class="edge">
<title>table1:2&#45;&gt;table2:0</title>
<path fill="none" stroke="black" d="M212,-667C224,-667 229.25,-667 237.88,-667"/>
<polygon fill="black" stroke="black" points="238,-670.5 248,-667 238,-663.5 238,-670.5"/>
</g>
<!-- table1&#45;&gt;table2 -->
<g id="edge4" class="edge">
<title>table1:3&#45;&gt;table2:1</title>
<path fill="none" stroke="black" d="M212,-645C224,-645 229.25,-645 237.88,-645"/>
<polygon fill="black" stroke="black" points="238,-648.5 248,-645 238,-641.5 238,-648.5"/>
</g>
<!-- table1&#45;&gt;table2 -->
<g id="edge5" class="edge">
<title>table1:4&#45;&gt;table2:2</title>
<path fill="none" stroke="black" d="M212,-623C224,-623 229.25,-623 237.88,-623"/>
<polygon fill="black" stroke="black" points="238,-626.5 248,-623 238,-619.5 238,-626.5"/>
</g>
<!-- table3 -->
<g id="node4" class="node">
<title>table3</title>
<polygon fill="#fce6c9" stroke="transparent" points="0,-418 0,-440 212,-440 212,-418 0,-418"/>
<polygon fill="none" stroke="black" points="0,-418 0,-440 212,-440 212,-418 0,-418"/>
<text text-anchor="start" x="15.5" y="-426.2" font-family="Palatino−Italic" font-size="11.00">korea.rpt_kpi_sellout_performance_l1</text>
<polygon fill="none" stroke="black" points="0,-396 0,-418 212,-418 212,-396 0,-396"/>
<text text-anchor="start" x="5" y="-404.2" font-family="Palatino−Italic" font-size="11.00">doc_date: timestamp</text>
<polygon fill="none" stroke="black" points="0,-374 0,-396 212,-396 212,-374 0,-374"/>
<text text-anchor="start" x="5" y="-382.2" font-family="Palatino−Italic" font-size="11.00">doc_month_code: string</text>
<polygon fill="none" stroke="black" points="0,-352 0,-374 212,-374 212,-352 0,-352"/>
<text text-anchor="start" x="5" y="-360.2" font-family="Palatino−Italic" font-size="11.00">channel_mode_code: string</text>
<polygon fill="none" stroke="black" points="0,-330 0,-352 212,-352 212,-330 0,-330"/>
<text text-anchor="start" x="5" y="-338.2" font-family="Palatino−Italic" font-size="11.00">channel_name: string</text>
<polygon fill="none" stroke="black" points="0,-308 0,-330 212,-330 212,-308 0,-308"/>
<text text-anchor="start" x="5" y="-316.2" font-family="Palatino−Italic" font-size="11.00">mall_name: string</text>
<polygon fill="none" stroke="black" points="0,-286 0,-308 212,-308 212,-286 0,-286"/>
<text text-anchor="start" x="5" y="-294.2" font-family="Palatino−Italic" font-size="11.00">sap_signature_short_name: string</text>
<polygon fill="none" stroke="black" points="0,-264 0,-286 212,-286 212,-264 0,-264"/>
<text text-anchor="start" x="5" y="-272.2" font-family="Palatino−Italic" font-size="11.00">month_short_desc: string</text>
<polygon fill="none" stroke="black" points="0,-242 0,-264 212,-264 212,-242 0,-242"/>
<text text-anchor="start" x="5" y="-250.2" font-family="Palatino−Italic" font-size="11.00">prev_year_sellout_amount: decimal(22,7)</text>
<polygon fill="none" stroke="black" points="0,-220 0,-242 212,-242 212,-220 0,-220"/>
<text text-anchor="start" x="5" y="-228.2" font-family="Palatino−Italic" font-size="11.00">actual_sellout_amount: decimal(22,7)</text>
<polygon fill="none" stroke="black" points="0,-198 0,-220 212,-220 212,-198 0,-198"/>
<text text-anchor="start" x="5" y="-206.2" font-family="Palatino−Italic" font-size="11.00">budget_amount: decimal(22,7)</text>
<polygon fill="none" stroke="black" points="0,-176 0,-198 212,-198 212,-176 0,-176"/>
<text text-anchor="start" x="5" y="-184.2" font-family="Palatino−Italic" font-size="11.00">trend_target_amount: decimal(22,7)</text>
<polygon fill="none" stroke="black" points="0,-154 0,-176 212,-176 212,-154 0,-154"/>
<text text-anchor="start" x="5" y="-162.2" font-family="Palatino−Italic" font-size="11.00">commercial_target_amount: decimal(22,7)</text>
<polygon fill="none" stroke="black" points="0,-132 0,-154 212,-154 212,-132 0,-132"/>
<text text-anchor="start" x="5" y="-140.2" font-family="Palatino−Italic" font-size="11.00">achieve_budget_pct: decimal(22,7)</text>
<polygon fill="none" stroke="black" points="0,-110 0,-132 212,-132 212,-110 0,-110"/>
<text text-anchor="start" x="5" y="-118.2" font-family="Palatino−Italic" font-size="11.00">achieve_trend_pct: decimal(22,7)</text>
<polygon fill="none" stroke="black" points="0,-88 0,-110 212,-110 212,-88 0,-88"/>
<text text-anchor="start" x="5" y="-96.2" font-family="Palatino−Italic" font-size="11.00">achieve_target_pct: decimal(22,7)</text>
<polygon fill="none" stroke="black" points="0,-66 0,-88 212,-88 212,-66 0,-66"/>
<text text-anchor="start" x="5" y="-74.2" font-family="Palatino−Italic" font-size="11.00">evol_pct: decimal(22,7)</text>
<polygon fill="none" stroke="black" points="0,-44 0,-66 212,-66 212,-44 0,-44"/>
<text text-anchor="start" x="5" y="-52.2" font-family="Palatino−Italic" font-size="11.00">insert_timestamp: timestamp</text>
<polygon fill="none" stroke="black" points="0,-22 0,-44 212,-44 212,-22 0,-22"/>
<text text-anchor="start" x="5" y="-30.2" font-family="Palatino−Italic" font-size="11.00">source_system_code: string</text>
<polygon fill="none" stroke="black" points="0,0 0,-22 212,-22 212,0 0,0"/>
<text text-anchor="start" x="5" y="-8.2" font-family="Palatino−Italic" font-size="11.00">batch_date: string</text>
</g>
<!-- table3&#45;&gt;table2 -->
<g id="edge6" class="edge">
<title>table3:3&#45;&gt;table2:0</title>
<path fill="none" stroke="black" d="M212,-341C281.18,-341 185.79,-634.73 238.26,-664.56"/>
<polygon fill="black" stroke="black" points="237.45,-667.97 248,-667 239.15,-661.18 237.45,-667.97"/>
</g>
<!-- table3&#45;&gt;table2 -->
<g id="edge7" class="edge">
<title>table3:4&#45;&gt;table2:1</title>
<path fill="none" stroke="black" d="M212,-319C281.18,-319 185.79,-612.73 238.26,-642.56"/>
<polygon fill="black" stroke="black" points="237.45,-645.97 248,-645 239.15,-639.18 237.45,-645.97"/>
</g>
<!-- table3&#45;&gt;table2 -->
<g id="edge8" class="edge">
<title>table3:5&#45;&gt;table2:2</title>
<path fill="none" stroke="black" d="M212,-297C281.18,-297 185.79,-590.73 238.26,-620.56"/>
<polygon fill="black" stroke="black" points="237.45,-623.97 248,-623 239.15,-617.18 237.45,-623.97"/>
</g>
</g>
</svg>
