<?xml version="1.0" encoding="UTF-8" standalone="no"?>
<!DOCTYPE svg PUBLIC "-//W3C//DTD SVG 1.1//EN"
 "http://www.w3.org/Graphics/SVG/1.1/DTD/svg11.dtd">
<!-- Generated by graphviz version 2.44.1 (20200629.0846)
 -->
<!-- Title: models_diagram Pages: 1 -->
<svg width="253pt" height="96pt"
 viewBox="0.00 0.00 253.00 96.00" xmlns="http://www.w3.org/2000/svg" xmlns:xlink="http://www.w3.org/1999/xlink">
<g id="graph0" class="graph" transform="scale(1 1) rotate(0) translate(4 92)">
<title>models_diagram</title>
<polygon fill="white" stroke="transparent" points="-4,4 -4,-92 249,-92 249,4 -4,4"/>
<!-- table0 -->
<g id="node1" class="node">
<title>table0</title>
<polygon fill="lightblue" stroke="transparent" points="0,-44 0,-66 126,-66 126,-44 0,-44"/>
<polygon fill="none" stroke="black" points="0,-44 0,-66 126,-66 126,-44 0,-44"/>
<text text-anchor="start" x="42.5" y="-52.2" font-family="Verdana" font-size="11.00">Table 0</text>
<polygon fill="none" stroke="black" points="0,-22 0,-44 126,-44 126,-22 0,-22"/>
<text text-anchor="start" x="5" y="-30.2" font-family="Verdana" font-size="11.00">ID: integer</text>
<polygon fill="none" stroke="black" points="0,0 0,-22 126,-22 126,0 0,0"/>
<text text-anchor="start" x="5" y="-8.2" font-family="Verdana" font-size="11.00">TABLE_1_ID: integer</text>
</g>
<!-- table1 -->
<g id="node2" class="node">
<title>table1</title>
<polygon fill="lightblue" stroke="transparent" points="162.5,-66 162.5,-88 245.5,-88 245.5,-66 162.5,-66"/>
<polygon fill="none" stroke="black" points="162.5,-66 162.5,-88 245.5,-88 245.5,-66 162.5,-66"/>
<text text-anchor="start" x="183.5" y="-74.2" font-family="Verdana" font-size="11.00">Table 1</text>
<polygon fill="none" stroke="black" points="162.5,-44 162.5,-66 245.5,-66 245.5,-44 162.5,-44"/>
<text text-anchor="start" x="167.5" y="-52.2" font-family="Verdana" font-size="11.00">ID: integer</text>
<polygon fill="none" stroke="black" points="162.5,-22 162.5,-44 245.5,-44 245.5,-22 162.5,-22"/>
<text text-anchor="start" x="167.5" y="-30.2" font-family="Verdana" font-size="11.00">NAME: string</text>
</g>
<!-- table0&#45;&gt;table1 -->
<g id="edge2" class="edge">
<title>table0:0&#45;&gt;table1:1</title>
<path fill="none" stroke="black" stroke-dasharray="5,2" d="M126,-33C138,-33 143.25,-33 151.88,-33"/>
<polygon fill="black" stroke="black" points="152,-36.5 162,-33 152,-29.5 152,-36.5"/>
</g>
<!-- table0&#45;&gt;table1 -->
<g id="edge3" class="edge">
<title>table0:1&#45;&gt;table1:0</title>
<path fill="none" stroke="black" stroke-dasharray="5,2" d="M126,-11C147.12,-11 140.43,-41.75 152.43,-51.84"/>
<polygon fill="black" stroke="black" points="151.41,-55.18 162,-55 153.6,-48.54 151.41,-55.18"/>
</g>
<!-- table1&#45;&gt;table0 -->
<g id="edge1" class="edge">
<title>table1:1&#45;&gt;table0:0</title>
<path fill="none" stroke="black" stroke-dasharray="5,2" d="M162,-33C150,-33 144.75,-33 136.12,-33"/>
<polygon fill="black" stroke="black" points="136,-29.5 126,-33 136,-36.5 136,-29.5"/>
</g>
</g>
</svg>
